<svg width="15" height="30" viewBox="0 0 15 30" fill="none" xmlns="http://www.w3.org/2000/svg">
<g clip-path="url(#clip0_1_2182)">
<path d="M8.78669 16.6159C8.78669 16.6159 8.8983 16.5043 9.12151 16.281C9.34473 16.0578 9.45633 15.6307 9.45633 14.9998C9.45633 14.3688 9.23312 13.8301 8.78669 13.3837C8.34026 12.9373 7.80157 12.7141 7.17062 12.7141C6.53967 12.7141 6.00098 12.9373 5.55455 13.3837C5.10812 13.8301 4.88491 14.3688 4.88491 14.9998C4.88491 15.6307 5.10812 16.1694 5.55455 16.6159C6.00098 17.0623 6.53967 17.2855 7.17062 17.2855C7.80157 17.2855 8.34026 17.0623 8.78669 16.6159ZM9.66169 12.5087C9.66169 12.5087 9.83282 12.6798 10.1751 13.0221C10.5173 13.3644 10.6885 14.0236 10.6885 14.9998C10.6885 15.976 10.3462 16.8063 9.66169 17.4909C8.97717 18.1754 8.14681 18.5176 7.17062 18.5176C6.19443 18.5176 5.36407 18.1754 4.67955 17.4909C3.99502 16.8063 3.65276 15.976 3.65276 14.9998C3.65276 14.0236 3.99502 13.1932 4.67955 12.5087C5.36407 11.8242 6.19443 11.4819 7.17062 11.4819C8.14681 11.4819 8.97717 11.8242 9.66169 12.5087ZM11.4117 10.7587C11.4117 10.7587 11.4519 10.7989 11.5322 10.8793C11.6126 10.9596 11.6528 11.1129 11.6528 11.3391C11.6528 11.5653 11.5724 11.7587 11.4117 11.9194C11.251 12.0801 11.0575 12.1605 10.8313 12.1605C10.6051 12.1605 10.4117 12.0801 10.251 11.9194C10.0903 11.7587 10.0099 11.5653 10.0099 11.3391C10.0099 11.1129 10.0903 10.9194 10.251 10.7587C10.4117 10.598 10.6051 10.5176 10.8313 10.5176C11.0575 10.5176 11.251 10.598 11.4117 10.7587ZM7.85366 9.37033C7.85366 9.37033 7.75023 9.37107 7.54339 9.37256C7.33654 9.37405 7.21229 9.37479 7.17062 9.37479C7.12895 9.37479 6.90127 9.3733 6.48758 9.37033C6.07389 9.36735 5.75991 9.36735 5.54562 9.37033C5.33133 9.3733 5.04413 9.38223 4.68401 9.39711C4.32389 9.41199 4.01735 9.44175 3.76437 9.4864C3.51139 9.53104 3.2986 9.5861 3.12598 9.65158C2.82836 9.77062 2.56645 9.94324 2.34026 10.1694C2.11407 10.3956 1.94145 10.6575 1.82241 10.9551C1.75693 11.1278 1.70187 11.3406 1.65723 11.5935C1.61258 11.8465 1.58282 12.1531 1.56794 12.5132C1.55306 12.8733 1.54413 13.1605 1.54116 13.3748C1.53818 13.5891 1.53818 13.9031 1.54116 14.3168C1.54413 14.7304 1.54562 14.9581 1.54562 14.9998C1.54562 15.0415 1.54413 15.2691 1.54116 15.6828C1.53818 16.0965 1.53818 16.4105 1.54116 16.6248C1.54413 16.8391 1.55306 17.1263 1.56794 17.4864C1.58282 17.8465 1.61258 18.1531 1.65723 18.406C1.70187 18.659 1.75693 18.8718 1.82241 19.0444C1.94145 19.3421 2.11407 19.604 2.34026 19.8301C2.56645 20.0563 2.82836 20.229 3.12598 20.348C3.2986 20.4135 3.51139 20.4685 3.76437 20.5132C4.01735 20.5578 4.32389 20.5876 4.68401 20.6025C5.04413 20.6174 5.33133 20.6263 5.54562 20.6293C5.75991 20.6322 6.07389 20.6322 6.48758 20.6293C6.90127 20.6263 7.12895 20.6248 7.17062 20.6248C7.21229 20.6248 7.43996 20.6263 7.85366 20.6293C8.26735 20.6322 8.58133 20.6322 8.79562 20.6293C9.00991 20.6263 9.29711 20.6174 9.65723 20.6025C10.0173 20.5876 10.3239 20.5578 10.5769 20.5132C10.8298 20.4685 11.0426 20.4135 11.2153 20.348C11.5129 20.229 11.7748 20.0563 12.001 19.8301C12.2272 19.604 12.3998 19.3421 12.5188 19.0444C12.5843 18.8718 12.6394 18.659 12.684 18.406C12.7287 18.1531 12.7584 17.8465 12.7733 17.4864C12.7882 17.1263 12.7971 16.8391 12.8001 16.6248C12.8031 16.4105 12.8031 16.0965 12.8001 15.6828C12.7971 15.2691 12.7956 15.0415 12.7956 14.9998C12.7956 14.9581 12.7971 14.7304 12.8001 14.3168C12.8031 13.9031 12.8031 13.5891 12.8001 13.3748C12.7971 13.1605 12.7882 12.8733 12.7733 12.5132C12.7584 12.1531 12.7287 11.8465 12.684 11.5935C12.6394 11.3406 12.5843 11.1278 12.5188 10.9551C12.3998 10.6575 12.2272 10.3956 12.001 10.1694C11.7748 9.94324 11.5129 9.77062 11.2153 9.65158C11.0426 9.5861 10.8298 9.53104 10.5769 9.4864C10.3239 9.44175 10.0173 9.41199 9.65723 9.39711C9.29711 9.38223 9.00991 9.3733 8.79562 9.37033C8.58133 9.36735 8.26735 9.36735 7.85366 9.37033ZM13.9831 12.1694C14.0129 12.6932 14.0278 13.6367 14.0278 14.9998C14.0278 16.3629 14.0129 17.3063 13.9831 17.8301C13.9236 19.0682 13.5545 20.0266 12.876 20.7051C12.1974 21.3837 11.2391 21.7528 10.001 21.8123C9.47717 21.8421 8.53372 21.8569 7.17062 21.8569C5.80752 21.8569 4.86407 21.8421 4.34026 21.8123C3.10217 21.7528 2.14383 21.3837 1.46526 20.7051C0.786691 20.0266 0.417643 19.0682 0.358119 17.8301C0.328358 17.3063 0.313477 16.3629 0.313477 14.9998C0.313477 13.6367 0.328358 12.6932 0.358119 12.1694C0.417643 10.9313 0.786691 9.973 1.46526 9.29443C2.14383 8.61586 3.10217 8.24681 4.34026 8.18729C4.86407 8.15753 5.80752 8.14265 7.17062 8.14265C8.53372 8.14265 9.47717 8.15753 10.001 8.18729C11.2391 8.24681 12.1974 8.61586 12.876 9.29443C13.5545 9.973 13.9236 10.9313 13.9831 12.1694Z" fill="white"/>
</g>
<defs>
<clipPath id="clip0_1_2182">
<rect width="13.72" height="16" fill="white" transform="matrix(1 0 0 -1 0.310547 23)"/>
</clipPath>
</defs>
</svg>
