<svg width="14" height="30" viewBox="0 0 14 30" fill="none" xmlns="http://www.w3.org/2000/svg">
<g clip-path="url(#clip0_1_2188)">
<path d="M12.9968 11.5578C12.9968 11.5578 13.1501 11.8205 13.4566 12.3458C13.7632 12.8711 13.9164 13.7557 13.9164 14.9998C13.9164 16.2438 13.6099 17.3912 12.9968 18.4418C12.3837 19.4924 11.5519 20.3242 10.5013 20.9373C9.45066 21.5504 8.30334 21.8569 7.05929 21.8569C6.39858 21.8569 5.74977 21.7617 5.11286 21.5712C5.46405 21.0176 5.6962 20.5296 5.80929 20.1069C5.86286 19.9046 6.02358 19.2766 6.29143 18.223C6.41048 18.4551 6.62774 18.656 6.94322 18.8257C7.2587 18.9953 7.59798 19.0801 7.96108 19.0801C8.68132 19.0801 9.32417 18.8763 9.88965 18.4685C10.4551 18.0608 10.8926 17.4998 11.2021 16.7855C11.5117 16.0712 11.6664 15.2676 11.6664 14.3748C11.6664 13.6962 11.4894 13.0593 11.1352 12.4641C10.781 11.8688 10.2676 11.3837 9.59501 11.0087C8.92239 10.6337 8.16346 10.4462 7.31822 10.4462C6.69322 10.4462 6.10989 10.5325 5.56822 10.7051C5.02655 10.8778 4.56673 11.1069 4.18876 11.3926C3.81078 11.6784 3.48637 12.0072 3.21554 12.3793C2.94471 12.7513 2.7453 13.1367 2.61733 13.5355C2.48935 13.9343 2.42536 14.3331 2.42536 14.7319C2.42536 15.351 2.54441 15.8956 2.78251 16.3659C3.0206 16.8361 3.36882 17.1665 3.82715 17.3569C4.00572 17.4284 4.11882 17.3688 4.16643 17.1784C4.17834 17.1367 4.20215 17.0444 4.23786 16.9016C4.27358 16.7587 4.29739 16.6694 4.30929 16.6337C4.34501 16.4968 4.31227 16.3688 4.21108 16.2498C3.90751 15.8867 3.75572 15.4373 3.75572 14.9016C3.75572 14.0028 4.06673 13.2304 4.68876 12.5846C5.31078 11.9388 6.12477 11.6159 7.13072 11.6159C8.02953 11.6159 8.73042 11.8599 9.2334 12.348C9.73637 12.8361 9.98786 13.47 9.98786 14.2498C9.98786 15.2617 9.78399 16.1218 9.37626 16.8301C8.96852 17.5385 8.4462 17.8926 7.80929 17.8926C7.4462 17.8926 7.15453 17.7632 6.93429 17.5043C6.71405 17.2453 6.6456 16.9343 6.72893 16.5712C6.77655 16.3629 6.85542 16.0846 6.96554 15.7364C7.07566 15.3882 7.16495 15.0816 7.2334 14.8168C7.30185 14.5519 7.33608 14.3272 7.33608 14.1426C7.33608 13.845 7.25572 13.598 7.09501 13.4016C6.93429 13.2051 6.70512 13.1069 6.40751 13.1069C6.03846 13.1069 5.72596 13.2766 5.47001 13.6159C5.21405 13.9551 5.08608 14.3778 5.08608 14.8837C5.08608 15.3182 5.16048 15.6813 5.30929 15.973L4.42536 19.7051C4.32417 20.1218 4.28548 20.6486 4.30929 21.2855C3.0831 20.7438 2.09203 19.9075 1.33608 18.7766C0.580125 17.6456 0.202148 16.3867 0.202148 14.9998C0.202148 13.7557 0.508696 12.6084 1.12179 11.5578C1.73489 10.5072 2.56673 9.67539 3.61733 9.06229C4.66792 8.44919 5.81524 8.14265 7.05929 8.14265C8.30334 8.14265 9.45066 8.44919 10.5013 9.06229C11.5519 9.67539 12.3837 10.5072 12.9968 11.5578Z" fill="white"/>
</g>
<defs>
<clipPath id="clip0_1_2188">
<rect width="13.72" height="16" fill="white" transform="matrix(1 0 0 -1 0.199219 23)"/>
</clipPath>
</defs>
</svg>
