<?xml version="1.0" standalone="no"?>
<!DOCTYPE svg PUBLIC "-//W3C//DTD SVG 20010904//EN"
 "http://www.w3.org/TR/2001/REC-SVG-20010904/DTD/svg10.dtd">
<svg version="1.0" xmlns="http://www.w3.org/2000/svg"
 width="1171.000000pt" height="324.000000pt" viewBox="0 0 1171.000000 324.000000"
 preserveAspectRatio="xMidYMid meet">

<g transform="translate(0.000000,324.000000) scale(0.100000,-0.100000)"
fill="#000000" stroke="none">
<path d="M40 1605 l0 -1605 5835 0 5835 0 0 1605 0 1605 -5835 0 -5835 0 0
-1605z m11590 -5 l0 -1510 -5745 0 -5745 0 0 1510 0 1510 5745 0 5745 0 0
-1510z"/>
<path d="M350 1600 l0 -1310 2770 0 2770 0 0 1310 0 1310 -2770 0 -2770 0 0
-1310z m653 445 c154 -40 263 -147 303 -299 17 -65 18 -186 0 -251 -40 -152
-149 -260 -301 -300 -43 -11 -111 -15 -252 -15 l-193 0 0 440 0 440 193 0
c139 0 209 -4 250 -15z m719 -292 l3 -308 26 -56 c30 -64 65 -93 133 -110 132
-33 248 35 275 162 6 29 11 170 11 334 l0 285 60 0 60 0 0 -290 c0 -317 -5
-363 -53 -454 -55 -104 -153 -156 -293 -156 -97 0 -165 23 -225 78 -104 93
-119 160 -119 540 l0 282 59 0 60 0 3 -307z m1182 52 c93 -140 170 -255 171
-255 1 0 78 115 170 255 l167 255 54 0 54 0 0 -440 0 -440 -55 0 -55 0 -2 328
-3 327 -143 -212 -142 -213 -48 0 -47 0 -140 212 -140 211 -3 -326 -2 -327
-60 0 -60 0 0 440 0 440 58 0 57 0 169 -255z m1244 0 c92 -140 169 -255 172
-254 3 0 79 114 170 254 l165 254 58 1 57 0 0 -440 0 -440 -60 0 -60 0 0 328
0 327 -142 -212 -141 -213 -49 0 -49 0 -139 212 -140 211 0 -326 0 -327 -60 0
-60 0 0 440 0 440 55 0 56 0 167 -255z m1122 40 c73 -128 127 -212 132 -207 5
5 62 101 127 213 l119 204 66 3 c36 2 66 1 66 -2 0 -3 -74 -132 -165 -286
l-165 -281 0 -155 0 -154 -55 0 -55 0 0 156 0 156 -154 261 c-84 144 -158 272
-165 285 -12 22 -11 22 57 22 l68 0 124 -215z"/>
<path d="M680 1620 l0 -332 143 4 c167 4 220 22 288 95 66 72 84 122 84 233 0
84 -3 102 -28 152 -32 65 -90 121 -156 151 -38 18 -70 22 -188 25 l-143 4 0
-332z"/>
<path d="M8034 2055 c-89 -19 -172 -65 -230 -127 -87 -92 -124 -186 -124 -318
0 -133 37 -227 126 -321 207 -216 628 -167 767 89 56 102 72 241 42 357 -63
242 -312 379 -581 320z m221 -242 c79 -40 119 -108 119 -203 0 -134 -87 -223
-219 -223 -131 -1 -219 89 -219 223 0 113 61 193 169 221 39 10 112 1 150 -18z"/>
<path d="M9058 2054 c-206 -49 -338 -223 -338 -444 0 -240 152 -418 387 -452
307 -45 543 150 543 449 l0 73 -250 0 -250 0 0 -90 0 -90 115 0 c131 0 139 -6
81 -64 -45 -44 -92 -59 -176 -54 -88 5 -137 36 -174 109 -54 110 -24 253 66
315 34 24 54 29 113 32 77 4 130 -13 169 -57 18 -19 30 -21 153 -21 85 0 133
4 133 10 0 25 -55 116 -96 160 -107 115 -304 166 -476 124z"/>
<path d="M10094 2055 c-213 -46 -354 -224 -354 -445 0 -236 155 -415 393 -452
253 -39 482 99 543 327 28 105 14 248 -36 344 -92 180 -321 275 -546 226z
m227 -246 c89 -45 133 -149 110 -256 -18 -78 -84 -146 -161 -162 -124 -27
-230 34 -265 151 -19 64 -19 72 0 136 41 136 187 197 316 131z"/>
<path d="M6990 1610 l0 -440 305 0 305 0 0 115 0 115 -177 2 -178 3 -3 323 -2
322 -125 0 -125 0 0 -440z"/>
</g>
</svg>
