<svg width="16" height="31" viewBox="0 0 16 31" fill="none" xmlns="http://www.w3.org/2000/svg">
<g clip-path="url(#clip0_1_2185)">
<path d="M14.6554 11.1429C14.2566 11.7263 13.7745 12.2233 13.209 12.634C13.2149 12.7173 13.2179 12.8423 13.2179 13.009C13.2179 13.7828 13.1048 14.5551 12.8786 15.326C12.6524 16.0968 12.3087 16.8364 11.8474 17.5447C11.3861 18.253 10.837 18.8795 10.2001 19.4242C9.56315 19.9688 8.79529 20.4033 7.89648 20.7277C6.99767 21.0522 6.03637 21.2144 5.01256 21.2144C3.39946 21.2144 1.92327 20.7828 0.583984 19.9197C0.792318 19.9435 1.02446 19.9554 1.28041 19.9554C2.6197 19.9554 3.81315 19.5447 4.86077 18.7233C4.23577 18.7114 3.67625 18.5194 3.1822 18.1474C2.68815 17.7754 2.34887 17.3007 2.16434 16.7233C2.36077 16.753 2.54232 16.7679 2.70898 16.7679C2.96494 16.7679 3.21791 16.7352 3.46791 16.6697C2.80125 16.5328 2.24916 16.201 1.81166 15.6742C1.37416 15.1474 1.15541 14.5358 1.15541 13.8394V13.8036C1.56017 14.0298 1.9947 14.1519 2.45898 14.1697C2.06613 13.9078 1.75363 13.5655 1.52148 13.1429C1.28934 12.7203 1.17327 12.262 1.17327 11.7679C1.17327 11.2441 1.30422 10.759 1.56613 10.3126C2.28637 11.1995 3.16285 11.9093 4.19559 12.442C5.22833 12.9748 6.33398 13.2709 7.51256 13.3304C7.46494 13.1042 7.44113 12.884 7.44113 12.6697C7.44113 11.8721 7.72238 11.192 8.28488 10.6295C8.84738 10.067 9.52744 9.78578 10.3251 9.78578C11.1584 9.78578 11.8608 10.0894 12.4322 10.6965C13.081 10.5715 13.6911 10.3394 14.2626 10.0001C14.0423 10.6846 13.6197 11.2144 12.9947 11.5894C13.5483 11.5298 14.1018 11.381 14.6554 11.1429Z" fill="white"/>
</g>
<defs>
<clipPath id="clip0_1_2185">
<rect width="14.86" height="16" fill="white" transform="matrix(1 0 0 -1 0.189453 23.5)"/>
</clipPath>
</defs>
</svg>
